<svg width="500" height="500" viewBox="0 0 500 500" fill="none" xmlns="http://www.w3.org/2000/svg">
<path d="M250 500C388.071 500 500 388.071 500 250C500 111.929 388.071 0 250 0C111.929 0 0 111.929 0 250C0 388.071 111.929 500 250 500Z" fill="#FF0025"/>
<path d="M248.547 126.323H248.547C243.768 126.323 239.895 130.196 239.895 134.975V365.638C239.895 370.416 243.768 374.29 248.547 374.29C253.325 374.29 257.199 370.416 257.199 365.638V134.975C257.199 130.196 253.325 126.323 248.547 126.323Z" fill="white" stroke="white"/>
<path d="M376.506 252.91V252.91C376.506 248.131 372.632 244.258 367.854 244.258L137.191 244.258C132.413 244.258 128.539 248.131 128.539 252.91C128.539 257.688 132.413 261.562 137.191 261.562H367.854C372.632 261.562 376.506 257.688 376.506 252.91Z" fill="white" stroke="white"/>
<path d="M338.304 341.419L338.304 341.419C341.683 338.04 341.683 332.562 338.304 329.183L175.201 166.08C171.822 162.701 166.344 162.701 162.965 166.08C159.586 169.458 159.586 174.937 162.965 178.315L326.068 341.419C329.447 344.797 334.925 344.798 338.304 341.419Z" fill="white" stroke="white"/>
<path d="M129.737 371.115L129.737 371.115C133.115 374.493 138.594 374.493 141.972 371.115L373.307 139.78C376.686 136.401 376.686 130.923 373.307 127.544C369.928 124.165 364.45 124.165 361.071 127.544L129.737 358.879C126.358 362.258 126.358 367.736 129.737 371.115Z" fill="white" stroke="white"/>
</svg>
